{
    "asset" : {
        "generator" : "Khronos glTF Blender I/O v1.1.46",
        "version" : "2.0"
    },
    "scene" : 0,
    "scenes" : [
        {
            "name" : "Scene",
            "nodes" : [
                0,
                1,
                2,
                3,
                4
            ]
        }
    ],
    "nodes" : [
        {
            "mesh" : 0,
            "name" : "Body"
        },
        {
            "mesh" : 1,
            "name" : "Wheel_RL"
        },
        {
            "mesh" : 2,
            "name" : "Wheel_FL"
        },
        {
            "mesh" : 3,
            "name" : "Wheel_FR"
        },
        {
            "mesh" : 4,
            "name" : "Wheel_RR"
        }
    ],
    "meshes" : [
        {
            "name" : "Plane",
            "primitives" : [
                {
                    "attributes" : {
                        "POSITION" : 0,
                        "NORMAL" : 1,
                        "TEXCOORD_0" : 2
                    },
                    "indices" : 3
                }
            ]
        },
        {
            "name" : "Cylinder.002",
            "primitives" : [
                {
                    "attributes" : {
                        "POSITION" : 4,
                        "NORMAL" : 5,
                        "TEXCOORD_0" : 6
                    },
                    "indices" : 7
                }
            ]
        },
        {
            "name" : "Cylinder.004",
            "primitives" : [
                {
                    "attributes" : {
                        "POSITION" : 8,
                        "NORMAL" : 9,
                        "TEXCOORD_0" : 10
                    },
                    "indices" : 11
                }
            ]
        },
        {
            "name" : "Cylinder.005",
            "primitives" : [
                {
                    "attributes" : {
                        "POSITION" : 12,
                        "NORMAL" : 13,
                        "TEXCOORD_0" : 14
                    },
                    "indices" : 15
                }
            ]
        },
        {
            "name" : "Cylinder.006",
            "primitives" : [
                {
                    "attributes" : {
                        "POSITION" : 16,
                        "NORMAL" : 17,
                        "TEXCOORD_0" : 18
                    },
                    "indices" : 19
                }
            ]
        }
    ],
    "accessors" : [
        {
            "bufferView" : 0,
            "componentType" : 5126,
            "count" : 4696,
            "max" : [
                1.1832963228225708,
                1.1369363069534302,
                2.411311388015747
            ],
            "min" : [
                -1.1832963228225708,
                0.14697901904582977,
                -2.0995607376098633
            ],
            "type" : "VEC3"
        },
        {
            "bufferView" : 1,
            "componentType" : 5126,
            "count" : 4696,
            "type" : "VEC3"
        },
        {
            "bufferView" : 2,
            "componentType" : 5126,
            "count" : 4696,
            "type" : "VEC2"
        },
        {
            "bufferView" : 3,
            "componentType" : 5123,
            "count" : 11172,
            "type" : "SCALAR"
        },
        {
            "bufferView" : 4,
            "componentType" : 5126,
            "count" : 707,
            "max" : [
                -0.6084731221199036,
                0.6354537010192871,
                1.8499263525009155
            ],
            "min" : [
                -1.0762953758239746,
                -0.01596972346305847,
                1.1985028982162476
            ],
            "type" : "VEC3"
        },
        {
            "bufferView" : 5,
            "componentType" : 5126,
            "count" : 707,
            "type" : "VEC3"
        },
        {
            "bufferView" : 6,
            "componentType" : 5126,
            "count" : 707,
            "type" : "VEC2"
        },
        {
            "bufferView" : 7,
            "componentType" : 5123,
            "count" : 2076,
            "type" : "SCALAR"
        },
        {
            "bufferView" : 8,
            "componentType" : 5126,
            "count" : 707,
            "max" : [
                -0.5992836356163025,
                0.6266186833381653,
                -0.7760206460952759
            ],
            "min" : [
                -0.9914048910140991,
                -0.024804741144180298,
                -1.4274441003799438
            ],
            "type" : "VEC3"
        },
        {
            "bufferView" : 9,
            "componentType" : 5126,
            "count" : 707,
            "type" : "VEC3"
        },
        {
            "bufferView" : 10,
            "componentType" : 5126,
            "count" : 707,
            "type" : "VEC2"
        },
        {
            "bufferView" : 11,
            "componentType" : 5123,
            "count" : 2076,
            "type" : "SCALAR"
        },
        {
            "bufferView" : 12,
            "componentType" : 5126,
            "count" : 707,
            "max" : [
                0.9914048910140991,
                0.6266186833381653,
                -0.7760206460952759
            ],
            "min" : [
                0.5992836356163025,
                -0.024804741144180298,
                -1.4274441003799438
            ],
            "type" : "VEC3"
        },
        {
            "bufferView" : 13,
            "componentType" : 5126,
            "count" : 707,
            "type" : "VEC3"
        },
        {
            "bufferView" : 14,
            "componentType" : 5126,
            "count" : 707,
            "type" : "VEC2"
        },
        {
            "bufferView" : 15,
            "componentType" : 5123,
            "count" : 2076,
            "type" : "SCALAR"
        },
        {
            "bufferView" : 16,
            "componentType" : 5126,
            "count" : 707,
            "max" : [
                1.0762953758239746,
                0.6354537010192871,
                1.8499263525009155
            ],
            "min" : [
                0.6084731221199036,
                -0.01596972346305847,
                1.1985028982162476
            ],
            "type" : "VEC3"
        },
        {
            "bufferView" : 17,
            "componentType" : 5126,
            "count" : 707,
            "type" : "VEC3"
        },
        {
            "bufferView" : 18,
            "componentType" : 5126,
            "count" : 707,
            "type" : "VEC2"
        },
        {
            "bufferView" : 19,
            "componentType" : 5123,
            "count" : 2076,
            "type" : "SCALAR"
        }
    ],
    "bufferViews" : [
        {
            "buffer" : 0,
            "byteLength" : 56352,
            "byteOffset" : 0
        },
        {
            "buffer" : 0,
            "byteLength" : 56352,
            "byteOffset" : 56352
        },
        {
            "buffer" : 0,
            "byteLength" : 37568,
            "byteOffset" : 112704
        },
        {
            "buffer" : 0,
            "byteLength" : 22344,
            "byteOffset" : 150272
        },
        {
            "buffer" : 0,
            "byteLength" : 8484,
            "byteOffset" : 172616
        },
        {
            "buffer" : 0,
            "byteLength" : 8484,
            "byteOffset" : 181100
        },
        {
            "buffer" : 0,
            "byteLength" : 5656,
            "byteOffset" : 189584
        },
        {
            "buffer" : 0,
            "byteLength" : 4152,
            "byteOffset" : 195240
        },
        {
            "buffer" : 0,
            "byteLength" : 8484,
            "byteOffset" : 199392
        },
        {
            "buffer" : 0,
            "byteLength" : 8484,
            "byteOffset" : 207876
        },
        {
            "buffer" : 0,
            "byteLength" : 5656,
            "byteOffset" : 216360
        },
        {
            "buffer" : 0,
            "byteLength" : 4152,
            "byteOffset" : 222016
        },
        {
            "buffer" : 0,
            "byteLength" : 8484,
            "byteOffset" : 226168
        },
        {
            "buffer" : 0,
            "byteLength" : 8484,
            "byteOffset" : 234652
        },
        {
            "buffer" : 0,
            "byteLength" : 5656,
            "byteOffset" : 243136
        },
        {
            "buffer" : 0,
            "byteLength" : 4152,
            "byteOffset" : 248792
        },
        {
            "buffer" : 0,
            "byteLength" : 8484,
            "byteOffset" : 252944
        },
        {
            "buffer" : 0,
            "byteLength" : 8484,
            "byteOffset" : 261428
        },
        {
            "buffer" : 0,
            "byteLength" : 5656,
            "byteOffset" : 269912
        },
        {
            "buffer" : 0,
            "byteLength" : 4152,
            "byteOffset" : 275568
        }
    ],
    "buffers" : [
        {
            "byteLength" : 279720,
            "uri" : "data:application/octet-stream;base64,"
        }
    ]
}
